<svg width="190" height="41" viewBox="0 0 190 41" fill="none" xmlns="http://www.w3.org/2000/svg">
<path d="M24.96 28.12C24.9333 28.44 24.8933 28.7733 24.84 29.12C24.7866 29.4666 24.6933 29.7867 24.56 30.08C24.4266 30.4 24.2533 30.64 24.04 30.8C23.7466 31.0666 23.4 31.2133 23 31.24C22.6266 31.3733 22.2666 31.4133 21.92 31.36C21.5733 31.3067 21.2533 31.2133 20.96 31.08C20.5866 30.84 20.3066 30.56 20.12 30.24C19.96 29.8933 19.84 29.5333 19.76 29.16C19.68 28.7866 19.64 28.4 19.64 28C19.64 27.6 19.64 27.2267 19.64 26.88V23.76L19.6 17.64C19.6 17.2133 19.6 16.88 19.6 16.64C19.6 16.4 19.6 16.1866 19.6 16C19.6 15.7866 19.5866 15.56 19.56 15.32C19.56 15.0533 19.56 14.68 19.56 14.2C19.56 14.12 19.56 13.9866 19.56 13.8C19.5866 13.5866 19.5733 13.04 19.52 12.16C18.48 13.8933 17.6133 15.2933 16.92 16.36C16.2533 17.4 15.68 18.2133 15.2 18.8C14.7466 19.36 14.3466 19.7466 14 19.96C13.6533 20.1466 13.2933 20.2533 12.92 20.28C12.7066 20.3066 12.4933 20.2666 12.28 20.16C12.0666 20.0533 11.8533 19.92 11.64 19.76C11.4533 19.6 11.2666 19.44 11.08 19.28C10.92 19.0933 10.7866 18.92 10.68 18.76C10.04 17.96 9.31998 17 8.51998 15.88C7.71998 14.76 6.89331 13.4 6.03998 11.8C6.03998 11.8266 6.02664 12.2666 5.99998 13.12C5.99998 13.9733 5.99998 15.04 5.99998 16.32C5.99998 17.5733 5.98664 18.9333 5.95998 20.4C5.95998 21.84 5.94664 23.1866 5.91998 24.44C5.91998 25.6933 5.90664 26.7466 5.87998 27.6C5.85331 28.4266 5.82664 28.84 5.79998 28.84C5.79998 29.2933 5.69331 29.72 5.47998 30.12C5.26664 30.4933 4.97331 30.8 4.59998 31.04C4.25331 31.28 3.83998 31.4133 3.35998 31.44C2.87998 31.4666 2.35998 31.3333 1.79998 31.04C1.45331 30.8267 1.18664 30.52 0.999975 30.12C0.839976 29.72 0.733309 29.3466 0.679976 29C0.653309 28.6266 0.626642 28.2666 0.599976 27.92C0.599976 27.5733 0.599976 27.2133 0.599976 26.84L0.639976 23.72L0.679976 17.56V12.2C0.679976 9.87998 0.759976 7.59998 0.919976 5.35998C0.919976 5.06665 0.946642 4.79998 0.999975 4.55998C1.07998 4.29332 1.17331 4.03998 1.27998 3.79998C1.49331 3.37331 1.77331 3.05331 2.11998 2.83998C2.51998 2.59998 2.94664 2.47998 3.39998 2.47998C3.58664 2.47998 3.75998 2.49331 3.91998 2.51998C4.10664 2.51998 4.27998 2.53332 4.43998 2.55998C4.97331 2.66665 5.42664 2.98665 5.79998 3.51998C6.19998 4.02665 6.57331 4.46665 6.91998 4.83998C7.13331 5.07998 7.35998 5.37332 7.59998 5.71998C7.83998 6.06665 8.07998 6.42665 8.31998 6.79998C8.55998 7.17332 8.78664 7.53332 8.99998 7.87998C9.21331 8.22665 9.39998 8.53332 9.55997 8.79998C10.2533 9.91998 10.8666 10.9466 11.4 11.88C11.96 12.8133 12.48 13.6133 12.96 14.28C13.04 14.2 13.1333 14.0933 13.24 13.96C13.3466 13.8 13.4533 13.64 13.56 13.48C13.6933 13.2933 13.8 13.12 13.88 12.96C13.9866 12.8 14.0666 12.6666 14.12 12.56C14.3866 12.1333 14.6533 11.72 14.92 11.32C15.1866 10.8933 15.4666 10.4533 15.76 9.99998C16.08 9.51998 16.4 8.99998 16.72 8.43998C17.0666 7.87998 17.4666 7.23998 17.92 6.51998C18.1066 6.19998 18.3466 5.81332 18.64 5.35998C18.9333 4.90665 19.2666 4.46665 19.64 4.03998C20.0133 3.61331 20.4 3.25331 20.8 2.95998C21.2266 2.63998 21.6533 2.47998 22.08 2.47998C22.2933 2.47998 22.48 2.49331 22.64 2.51998C22.8 2.51998 22.96 2.53332 23.12 2.55998C23.44 2.58665 23.7466 2.73331 24.04 2.99998C24.2533 3.21331 24.4133 3.43998 24.52 3.67998C24.6266 4.02665 24.6933 4.31998 24.72 4.55998C24.7466 4.74665 24.76 4.91998 24.76 5.07998C24.7866 5.23998 24.8 5.39998 24.8 5.55998C24.8 7.05331 24.8133 8.53331 24.84 9.99998C24.8666 11.4666 24.88 12.9466 24.88 14.44C24.88 16.2533 24.88 18.12 24.88 20.04C24.9066 21.96 24.92 23.8266 24.92 25.64C24.92 26.0133 24.9333 26.4133 24.96 26.84C24.9866 27.2666 24.9866 27.6933 24.96 28.12Z" fill="#9DF1DF"/>
<path d="M33.3772 12.92C34.2572 12.4933 35.1772 12.1866 36.1372 12C37.0972 11.8133 38.0438 11.7733 38.9772 11.88C39.9372 11.9866 40.8572 12.24 41.7372 12.64C42.6438 13.04 43.4705 13.6 44.2172 14.32C44.8305 14.9333 45.3638 15.68 45.8172 16.56C46.2705 17.4133 46.6038 18.2533 46.8172 19.08C47.2705 20.5466 47.3372 22.0266 47.0172 23.52C46.6972 25.0133 46.1505 26.4 45.3772 27.68C45.0038 28.2666 44.5372 28.8 43.9772 29.28C43.4438 29.7333 42.8705 30.1067 42.2572 30.4C41.4572 30.7733 40.5905 31.0266 39.6572 31.16C38.7238 31.32 37.8172 31.36 36.9372 31.28C35.3372 31.2 33.9238 30.8 32.6972 30.08C31.4972 29.36 30.5238 28.44 29.7772 27.32C29.0572 26.2 28.5772 24.9333 28.3372 23.52C28.1238 22.08 28.2172 20.6133 28.6172 19.12C29.0438 17.52 29.6572 16.2266 30.4572 15.24C31.2838 14.2266 32.2572 13.4533 33.3772 12.92ZM34.5772 18.28C34.1772 18.6533 33.8705 19.12 33.6572 19.68C33.4438 20.24 33.3105 20.8266 33.2572 21.44C33.2038 22.0267 33.2438 22.6266 33.3772 23.24C33.5372 23.8266 33.7772 24.36 34.0972 24.84C34.3638 25.24 34.8438 25.5733 35.5372 25.84C36.2305 26.1066 36.9505 26.2666 37.6972 26.32C38.5505 26.3733 39.2972 26.1466 39.9372 25.64C40.5772 25.1066 41.0572 24.4533 41.3772 23.68C41.7238 22.9066 41.8838 22.0666 41.8572 21.16C41.8305 20.2533 41.5905 19.4266 41.1372 18.68C40.8172 18.1466 40.3638 17.76 39.7772 17.52C39.2172 17.2533 38.6172 17.12 37.9772 17.12C37.3638 17.0933 36.7505 17.1866 36.1372 17.4C35.5238 17.5866 35.0038 17.88 34.5772 18.28Z" fill="#9DF1DF"/>
<path d="M66.8765 13.48C66.9832 13.8 67.0099 14.16 66.9565 14.56C66.9032 14.96 66.8099 15.3733 66.6765 15.8C66.5432 16.2 66.3832 16.6 66.1965 17C66.0365 17.3733 65.8899 17.7066 65.7565 18C65.0632 19.4133 64.4099 20.8 63.7965 22.16C63.1832 23.52 62.4632 25 61.6365 26.6C61.4765 26.92 61.2899 27.3066 61.0765 27.76C60.8899 28.1866 60.6765 28.6133 60.4365 29.04C60.1965 29.44 59.9299 29.8133 59.6365 30.16C59.3699 30.5066 59.0765 30.76 58.7565 30.92C58.4899 31.08 58.2232 31.1466 57.9565 31.12C57.7432 31.1733 57.5032 31.1066 57.2365 30.92C56.9165 30.76 56.6099 30.5066 56.3165 30.16C56.0499 29.8133 55.7965 29.44 55.5565 29.04C55.3165 28.6133 55.0899 28.1866 54.8765 27.76C54.6899 27.3066 54.5165 26.92 54.3565 26.6C54.0365 25.9866 53.7299 25.4133 53.4365 24.88C53.1699 24.3466 52.8765 23.7733 52.5565 23.16C52.2632 22.52 51.9299 21.8 51.5565 21C51.1832 20.1733 50.7432 19.1733 50.2365 18C50.1032 17.68 49.9565 17.3466 49.7965 17C49.6365 16.6533 49.4899 16.28 49.3565 15.88C49.2499 15.48 49.1699 15.08 49.1165 14.68C49.0899 14.2533 49.1165 13.8266 49.1965 13.4C49.2765 13 49.4765 12.68 49.7965 12.44C50.1165 12.2 50.4765 12.04 50.8765 11.96C51.2765 11.88 51.6765 11.8933 52.0765 12C52.4765 12.08 52.7965 12.2533 53.0365 12.52C53.2765 12.76 53.5032 13.08 53.7165 13.48C53.9299 13.88 54.1299 14.3066 54.3165 14.76C54.5299 15.1866 54.7165 15.6266 54.8765 16.08C55.0632 16.5066 55.2365 16.88 55.3965 17.2C55.7699 17.9733 56.1832 18.8133 56.6365 19.72C57.1165 20.6266 57.5432 21.4666 57.9165 22.24C58.1832 21.6266 58.4232 21.12 58.6365 20.72C58.8499 20.2933 59.0499 19.88 59.2365 19.48C59.4499 19.08 59.6632 18.64 59.8765 18.16C60.1165 17.68 60.4099 17.0666 60.7565 16.32C61.0765 15.6266 61.3965 14.9466 61.7165 14.28C62.0632 13.6133 62.4765 13.0266 62.9565 12.52C63.1965 12.2533 63.5032 12.08 63.8765 12C64.2499 11.8933 64.6365 11.88 65.0365 11.96C65.4365 12.04 65.7965 12.2133 66.1165 12.48C66.4632 12.72 66.7165 13.0533 66.8765 13.48Z" fill="#9DF1DF"/>
<path d="M75.2494 15.84C75.2494 16.5866 75.2494 17.4266 75.2494 18.36C75.276 19.2933 75.2894 20.2666 75.2894 21.28C75.2894 22.2666 75.2894 23.2533 75.2894 24.24C75.2894 25.2 75.276 26.0933 75.2494 26.92C75.2227 27.32 75.1827 27.76 75.1293 28.24C75.076 28.6933 74.9693 29.12 74.8093 29.52C74.6493 29.92 74.396 30.2533 74.0494 30.52C73.7294 30.76 73.2894 30.8666 72.7294 30.84C71.9027 30.7866 71.3027 30.4266 70.9294 29.76C70.5827 29.0933 70.3827 28.16 70.3294 26.96C70.3294 26.3466 70.316 25.64 70.2894 24.84C70.2894 24.04 70.276 23.2266 70.2494 22.4C70.2494 21.5733 70.2494 20.7733 70.2494 20C70.2494 19.2 70.2494 18.48 70.2494 17.84C70.2494 17.4666 70.236 17.0133 70.2094 16.48C70.2094 15.9466 70.2227 15.4 70.2494 14.84C70.276 14.28 70.3427 13.7466 70.4493 13.24C70.556 12.7066 70.7294 12.2666 70.9694 11.92C71.156 11.7066 71.4227 11.5466 71.7694 11.44C72.116 11.3066 72.476 11.24 72.8493 11.24C73.2493 11.24 73.6227 11.3066 73.9694 11.44C74.3427 11.5733 74.6094 11.76 74.7694 12C74.876 12.16 74.956 12.3866 75.0094 12.68C75.0627 12.9733 75.1027 13.3066 75.1293 13.68C75.1827 14.0266 75.2094 14.4 75.2094 14.8C75.236 15.1733 75.2494 15.52 75.2494 15.84ZM73.7294 7.75998C72.9027 7.97331 72.2094 7.89332 71.6494 7.51998C71.116 7.11998 70.7827 6.53331 70.6494 5.75998C70.5427 5.19998 70.5827 4.70665 70.7694 4.27998C70.956 3.85332 71.236 3.53332 71.6094 3.31998C71.9827 3.07998 72.4094 2.97331 72.8894 2.99998C73.3694 3.02665 73.8494 3.21331 74.3294 3.55998C74.7827 3.87998 75.1027 4.25332 75.2894 4.67998C75.5027 5.10665 75.5693 5.51998 75.4893 5.91998C75.436 6.31998 75.2627 6.69331 74.9694 7.03998C74.676 7.35998 74.2627 7.59998 73.7294 7.75998Z" fill="#9DF1DF"/>
<path d="M92.604 25.52C92.924 25.44 93.244 25.3867 93.564 25.36C93.9107 25.3333 94.2174 25.3733 94.484 25.48C94.7774 25.5866 95.0174 25.7733 95.204 26.04C95.3907 26.28 95.484 26.6266 95.484 27.08C95.484 27.4 95.404 27.7066 95.244 28C95.084 28.2933 94.884 28.56 94.644 28.8C94.404 29.04 94.1374 29.2533 93.844 29.44C93.5507 29.6 93.2707 29.7333 93.004 29.84C92.2307 30.1866 91.3374 30.4533 90.324 30.64C89.3374 30.8266 88.3107 30.8933 87.244 30.84C85.804 30.7866 84.4174 30.5066 83.084 30C81.7774 29.4666 80.7507 28.6 80.004 27.4C79.3107 26.2267 78.8974 24.92 78.764 23.48C78.6307 22.04 78.6974 20.68 78.964 19.4C79.2574 17.8533 79.7507 16.6 80.444 15.64C81.164 14.6533 82.0174 13.8666 83.004 13.28C84.204 12.5866 85.5507 12.2266 87.044 12.2C88.5374 12.1733 89.964 12.4666 91.324 13.08C92.2307 13.48 93.044 14.0266 93.764 14.72C94.484 15.3866 95.0307 16.2 95.404 17.16C95.5107 17.4 95.5907 17.6933 95.644 18.04C95.724 18.3866 95.7774 18.76 95.804 19.16C95.8307 19.5333 95.8307 19.9066 95.804 20.28C95.7774 20.6533 95.7107 20.9866 95.604 21.28C95.444 21.76 95.244 22.1333 95.004 22.4C94.764 22.6666 94.4574 22.8666 94.084 23C93.7107 23.1333 93.2574 23.2267 92.724 23.28C92.2174 23.3067 91.604 23.3333 90.884 23.36C90.244 23.3866 89.644 23.4 89.084 23.4C88.524 23.4 87.9507 23.4 87.364 23.4C86.7774 23.3733 86.164 23.36 85.524 23.36C84.9107 23.3333 84.2174 23.3067 83.444 23.28C83.364 23.8133 83.4307 24.28 83.644 24.68C83.884 25.0533 84.204 25.3733 84.604 25.64C85.004 25.88 85.4574 26.0667 85.964 26.2C86.4707 26.3333 86.964 26.4133 87.444 26.44C88.3507 26.4933 89.2174 26.4267 90.044 26.24C90.8707 26.0267 91.724 25.7867 92.604 25.52ZM90.884 17.76C90.3774 17.1733 89.844 16.7466 89.284 16.48C88.8574 16.2933 88.404 16.2133 87.924 16.24C87.4707 16.24 87.0307 16.3066 86.604 16.44C85.8307 16.6266 85.1774 17.0266 84.644 17.64C84.5907 17.6933 84.4974 17.8266 84.364 18.04C84.2307 18.2267 84.0974 18.4266 83.964 18.64C83.8574 18.8533 83.7774 19.0533 83.724 19.24C83.6707 19.4266 83.6974 19.52 83.804 19.52H91.644C91.6174 19.1466 91.5507 18.84 91.444 18.6C91.3374 18.3333 91.1507 18.0533 90.884 17.76Z" fill="#9DF1DF"/>
<path d="M121.117 3.91998C121.411 4.26665 121.557 4.62665 121.557 4.99998C121.557 5.15998 121.544 5.33331 121.517 5.51998C121.517 5.67998 121.504 5.82665 121.477 5.95998C121.397 6.25332 121.224 6.53332 120.957 6.79998C120.744 6.95998 120.451 7.07998 120.077 7.15998C119.891 7.21332 119.704 7.25331 119.517 7.27998C119.331 7.30665 119.131 7.34665 118.917 7.39998C118.731 7.42665 118.544 7.43998 118.357 7.43998C118.171 7.43998 117.971 7.43998 117.757 7.43998H115.717C115.237 7.46665 114.757 7.47998 114.277 7.47998C113.824 7.47998 113.371 7.47998 112.917 7.47998C112.944 8.30665 112.957 9.19998 112.957 10.16C112.957 11.0933 112.944 12.1866 112.917 13.44C112.917 14.6933 112.904 16.1466 112.877 17.8C112.877 19.4533 112.877 21.3733 112.877 23.56V26.6C112.877 26.8666 112.891 27.0667 112.917 27.2C112.917 27.3067 112.917 27.4133 112.917 27.52C112.917 27.6 112.904 27.7066 112.877 27.84C112.824 28.08 112.784 28.36 112.757 28.68C112.757 28.8133 112.744 28.9467 112.717 29.08C112.691 29.1867 112.651 29.3066 112.597 29.44C112.491 29.5466 112.437 29.6266 112.437 29.68L112.317 29.92C112.184 30.1866 111.931 30.44 111.557 30.68C110.971 30.9733 110.317 31.04 109.597 30.88C109.144 30.8267 108.797 30.7066 108.557 30.52C108.317 30.28 108.144 30.04 108.037 29.8C107.877 29.5066 107.784 29.2266 107.757 28.96C107.677 28.72 107.637 28.4667 107.637 28.2V7.63998C107.477 7.63998 107.144 7.63998 106.637 7.63998C106.131 7.63998 105.584 7.63998 104.997 7.63998C104.437 7.61331 103.904 7.58665 103.397 7.55998C102.891 7.53332 102.544 7.50665 102.357 7.47998C102.197 7.45331 101.944 7.41331 101.597 7.35998C101.277 7.30665 101.011 7.25331 100.797 7.19998C100.237 7.03998 99.7975 6.78665 99.4775 6.43998C99.1841 6.09331 99.0375 5.70665 99.0375 5.27998C99.0375 5.11998 99.0375 4.95998 99.0375 4.79998C99.0375 4.63998 99.0641 4.49332 99.1175 4.35998C99.1975 4.03998 99.4108 3.77331 99.7575 3.55998C99.8641 3.47998 100.024 3.38665 100.237 3.27998C100.477 3.14665 100.704 3.05332 100.917 2.99998C101.237 2.89331 101.637 2.81331 102.117 2.75998C102.331 2.73331 102.544 2.71998 102.757 2.71998C102.971 2.71998 103.197 2.71998 103.437 2.71998C104.371 2.71998 105.251 2.71998 106.077 2.71998C106.931 2.71998 107.824 2.70665 108.757 2.67998C110.304 2.65332 111.837 2.65332 113.357 2.67998C114.904 2.67998 116.437 2.70665 117.957 2.75998C118.304 2.78665 118.637 2.82665 118.957 2.87998C119.277 2.93331 119.597 3.02665 119.917 3.15998C120.157 3.23998 120.384 3.34665 120.597 3.47998C120.811 3.58665 120.984 3.73332 121.117 3.91998Z" fill="#9DF1DF"/>
<path d="M124.744 12.92C125.624 12.4933 126.544 12.1866 127.504 12C128.464 11.8133 129.411 11.7733 130.344 11.88C131.304 11.9866 132.224 12.24 133.104 12.64C134.011 13.04 134.838 13.6 135.584 14.32C136.198 14.9333 136.731 15.68 137.184 16.56C137.638 17.4133 137.971 18.2533 138.184 19.08C138.638 20.5466 138.704 22.0266 138.384 23.52C138.064 25.0133 137.518 26.4 136.744 27.68C136.371 28.2666 135.904 28.8 135.344 29.28C134.811 29.7333 134.238 30.1067 133.624 30.4C132.824 30.7733 131.958 31.0266 131.024 31.16C130.091 31.32 129.184 31.36 128.304 31.28C126.704 31.2 125.291 30.8 124.064 30.08C122.864 29.36 121.891 28.44 121.144 27.32C120.424 26.2 119.944 24.9333 119.704 23.52C119.491 22.08 119.584 20.6133 119.984 19.12C120.411 17.52 121.024 16.2266 121.824 15.24C122.651 14.2266 123.624 13.4533 124.744 12.92ZM125.944 18.28C125.544 18.6533 125.238 19.12 125.024 19.68C124.811 20.24 124.678 20.8266 124.624 21.44C124.571 22.0267 124.611 22.6266 124.744 23.24C124.904 23.8266 125.144 24.36 125.464 24.84C125.731 25.24 126.211 25.5733 126.904 25.84C127.598 26.1066 128.318 26.2666 129.064 26.32C129.918 26.3733 130.664 26.1466 131.304 25.64C131.944 25.1066 132.424 24.4533 132.744 23.68C133.091 22.9066 133.251 22.0666 133.224 21.16C133.198 20.2533 132.958 19.4266 132.504 18.68C132.184 18.1466 131.731 17.76 131.144 17.52C130.584 17.2533 129.984 17.12 129.344 17.12C128.731 17.0933 128.118 17.1866 127.504 17.4C126.891 17.5866 126.371 17.88 125.944 18.28Z" fill="#9DF1DF"/>
<path d="M152.972 13C153.745 13.32 154.452 13.7866 155.092 14.4C155.732 14.9866 156.279 15.6666 156.732 16.44C157.212 17.2133 157.572 18.0533 157.812 18.96C158.079 19.84 158.212 20.7333 158.212 21.64C158.239 23 157.919 24.28 157.252 25.48C156.612 26.68 155.559 27.6 154.092 28.24C152.972 28.6933 151.812 29.04 150.612 29.28C149.439 29.4933 148.212 29.64 146.932 29.72V37.04C146.932 37.2 146.905 37.3466 146.852 37.48C146.825 37.6133 146.812 37.7466 146.812 37.88C146.759 38.1466 146.692 38.3866 146.612 38.6C146.559 38.8133 146.479 39.04 146.372 39.28C146.265 39.44 146.159 39.5867 146.052 39.72C145.945 39.8533 145.825 39.9866 145.692 40.12C145.052 40.44 144.385 40.5067 143.692 40.32C143.265 40.2933 142.919 40.16 142.652 39.92C142.412 39.68 142.239 39.4266 142.132 39.16C142.025 38.8933 141.932 38.5866 141.852 38.24C141.825 38.1066 141.799 37.9733 141.772 37.84C141.772 37.7333 141.772 37.6133 141.772 37.48V15.2C141.772 15.04 141.772 14.88 141.772 14.72C141.799 14.5333 141.825 14.3466 141.852 14.16C141.879 13.84 141.959 13.52 142.092 13.2C142.332 12.5333 142.825 12.08 143.572 11.84C144.319 11.6 145.159 11.4933 146.092 11.52C146.732 11.5466 147.385 11.6133 148.052 11.72C148.745 11.8266 149.399 11.96 150.012 12.12C150.652 12.2533 151.225 12.4 151.732 12.56C152.239 12.72 152.652 12.8666 152.972 13ZM153.052 21.64C153.159 20.8933 153.065 20.2666 152.772 19.76C152.505 19.2266 152.119 18.8 151.612 18.48C151.105 18.1333 150.519 17.8666 149.852 17.68C149.212 17.4933 148.572 17.36 147.932 17.28C147.852 17.2533 147.719 17.24 147.532 17.24C147.372 17.24 147.185 17.24 146.972 17.24C146.972 18.0933 146.972 18.92 146.972 19.72C146.999 20.4933 146.999 21.3333 146.972 22.24V24.92C147.585 24.8933 148.225 24.8266 148.892 24.72C149.585 24.6133 150.225 24.44 150.812 24.2C151.399 23.96 151.892 23.64 152.292 23.24C152.719 22.84 152.972 22.3066 153.052 21.64Z" fill="#9DF1DF"/>
<path d="M166.499 15.84C166.499 16.5866 166.499 17.4266 166.499 18.36C166.526 19.2933 166.539 20.2666 166.539 21.28C166.539 22.2666 166.539 23.2533 166.539 24.24C166.539 25.2 166.526 26.0933 166.499 26.92C166.473 27.32 166.433 27.76 166.379 28.24C166.326 28.6933 166.219 29.12 166.059 29.52C165.899 29.92 165.646 30.2533 165.299 30.52C164.979 30.76 164.539 30.8666 163.979 30.84C163.153 30.7866 162.553 30.4266 162.179 29.76C161.833 29.0933 161.633 28.16 161.579 26.96C161.579 26.3466 161.566 25.64 161.539 24.84C161.539 24.04 161.526 23.2266 161.499 22.4C161.499 21.5733 161.499 20.7733 161.499 20C161.499 19.2 161.499 18.48 161.499 17.84C161.499 17.4666 161.486 17.0133 161.459 16.48C161.459 15.9466 161.473 15.4 161.499 14.84C161.526 14.28 161.593 13.7466 161.699 13.24C161.806 12.7066 161.979 12.2666 162.219 11.92C162.406 11.7066 162.673 11.5466 163.019 11.44C163.366 11.3066 163.726 11.24 164.099 11.24C164.499 11.24 164.873 11.3066 165.219 11.44C165.593 11.5733 165.859 11.76 166.019 12C166.126 12.16 166.206 12.3866 166.259 12.68C166.313 12.9733 166.353 13.3066 166.379 13.68C166.433 14.0266 166.459 14.4 166.459 14.8C166.486 15.1733 166.499 15.52 166.499 15.84ZM164.979 7.75998C164.153 7.97331 163.459 7.89332 162.899 7.51998C162.366 7.11998 162.033 6.53331 161.899 5.75998C161.793 5.19998 161.833 4.70665 162.019 4.27998C162.206 3.85332 162.486 3.53332 162.859 3.31998C163.233 3.07998 163.659 2.97331 164.139 2.99998C164.619 3.02665 165.099 3.21331 165.579 3.55998C166.033 3.87998 166.353 4.25332 166.539 4.67998C166.753 5.10665 166.819 5.51998 166.739 5.91998C166.686 6.31998 166.513 6.69331 166.219 7.03998C165.926 7.35998 165.513 7.59998 164.979 7.75998Z" fill="#9DF1DF"/>
<path d="M174.694 14.16C175.494 13.76 176.334 13.48 177.214 13.32C178.094 13.1333 178.961 13.0933 179.814 13.2C180.694 13.28 181.534 13.5066 182.334 13.88C183.134 14.2266 183.881 14.7333 184.574 15.4C185.267 16.0933 185.801 16.8533 186.174 17.68C186.547 18.5066 186.814 19.4266 186.974 20.44C187.081 21.1333 187.254 21.7733 187.494 22.36C187.734 22.9467 187.987 23.5333 188.254 24.12C188.547 24.7066 188.814 25.2933 189.054 25.88C189.321 26.4666 189.534 27.08 189.694 27.72C189.827 28.3333 189.774 28.9333 189.534 29.52C189.321 30.08 188.867 30.4267 188.174 30.56C187.774 30.64 187.387 30.6133 187.014 30.48C186.667 30.32 186.347 30.1066 186.054 29.84C185.761 29.5466 185.494 29.24 185.254 28.92C185.041 28.5733 184.841 28.2533 184.654 27.96C184.041 28.76 183.374 29.3866 182.654 29.84C181.934 30.2666 181.067 30.5466 180.054 30.68C179.201 30.7866 178.387 30.8133 177.614 30.76C176.841 30.7066 176.014 30.56 175.134 30.32C173.987 30.0266 173.041 29.52 172.294 28.8C171.574 28.0533 171.014 27.2 170.614 26.24C170.241 25.2533 170.041 24.2 170.014 23.08C169.987 21.96 170.121 20.8533 170.414 19.76C170.787 18.32 171.347 17.1466 172.094 16.24C172.841 15.3333 173.707 14.64 174.694 14.16ZM175.694 18.84C175.321 19.2133 175.027 19.6533 174.814 20.16C174.601 20.6666 174.467 21.2 174.414 21.76C174.387 22.32 174.441 22.88 174.574 23.44C174.707 24 174.921 24.4933 175.214 24.92C175.481 25.2933 175.934 25.6133 176.574 25.88C177.214 26.12 177.881 26.2666 178.574 26.32C179.374 26.3733 180.067 26.16 180.654 25.68C181.267 25.2 181.721 24.6 182.014 23.88C182.334 23.1333 182.481 22.3466 182.454 21.52C182.427 20.6666 182.201 19.8933 181.774 19.2C181.454 18.6933 181.027 18.32 180.494 18.08C179.987 17.84 179.441 17.72 178.854 17.72C178.267 17.6933 177.681 17.7866 177.094 18C176.534 18.1866 176.067 18.4666 175.694 18.84Z" fill="#9DF1DF"/>
<path d="M25.36 25.64C25.3333 25.96 25.2933 26.2933 25.24 26.64C25.1867 26.9867 25.0933 27.3067 24.96 27.6C24.8267 27.92 24.6533 28.16 24.44 28.32C24.1467 28.5867 23.8 28.7333 23.4 28.76C23.0267 28.8933 22.6667 28.9333 22.32 28.88C21.9733 28.8267 21.6533 28.7333 21.36 28.6C20.9867 28.36 20.7067 28.08 20.52 27.76C20.36 27.4133 20.24 27.0533 20.16 26.68C20.08 26.3067 20.04 25.92 20.04 25.52C20.04 25.12 20.04 24.7467 20.04 24.4V21.28L20 15.16C20 14.7333 20 14.4 20 14.16C20 13.92 20 13.7067 20 13.52C20 13.3067 19.9867 13.08 19.96 12.84C19.96 12.5733 19.96 12.2 19.96 11.72C19.96 11.64 19.96 11.5067 19.96 11.32C19.9867 11.1067 19.9733 10.56 19.92 9.68C18.88 11.4133 18.0133 12.8133 17.32 13.88C16.6533 14.92 16.08 15.7333 15.6 16.32C15.1467 16.88 14.7467 17.2667 14.4 17.48C14.0533 17.6667 13.6933 17.7733 13.32 17.8C13.1067 17.8267 12.8933 17.7867 12.68 17.68C12.4667 17.5733 12.2533 17.44 12.04 17.28C11.8533 17.12 11.6667 16.96 11.48 16.8C11.32 16.6133 11.1867 16.44 11.08 16.28C10.44 15.48 9.72 14.52 8.92 13.4C8.12 12.28 7.29333 10.92 6.44 9.32C6.44 9.34667 6.42667 9.78667 6.4 10.64C6.4 11.4933 6.4 12.56 6.4 13.84C6.4 15.0933 6.38667 16.4533 6.36 17.92C6.36 19.36 6.34667 20.7067 6.32 21.96C6.32 23.2133 6.30667 24.2667 6.28 25.12C6.25333 25.9467 6.22667 26.36 6.2 26.36C6.2 26.8133 6.09333 27.24 5.88 27.64C5.66667 28.0133 5.37333 28.32 5 28.56C4.65333 28.8 4.24 28.9333 3.76 28.96C3.28 28.9867 2.76 28.8533 2.2 28.56C1.85333 28.3467 1.58667 28.04 1.4 27.64C1.24 27.24 1.13333 26.8667 1.08 26.52C1.05333 26.1467 1.02667 25.7867 1 25.44C1 25.0933 1 24.7333 1 24.36L1.04 21.24L1.08 15.08V9.72C1.08 7.4 1.16 5.12 1.32 2.88C1.32 2.58667 1.34667 2.32 1.4 2.08C1.48 1.81334 1.57333 1.56 1.68 1.32C1.89333 0.893335 2.17333 0.573334 2.52 0.36C2.92 0.12 3.34667 0 3.8 0C3.98667 0 4.16 0.013334 4.32 0.0400019C4.50667 0.0400019 4.68 0.053335 4.84 0.0800014C5.37333 0.186668 5.82667 0.506668 6.2 1.04C6.6 1.54667 6.97333 1.98667 7.32 2.36C7.53333 2.6 7.76 2.89333 8 3.24C8.24 3.58667 8.48 3.94667 8.72 4.32C8.96 4.69333 9.18667 5.05334 9.4 5.4C9.61333 5.74667 9.8 6.05334 9.96 6.32C10.6533 7.44 11.2667 8.46667 11.8 9.4C12.36 10.3333 12.88 11.1333 13.36 11.8C13.44 11.72 13.5333 11.6133 13.64 11.48C13.7467 11.32 13.8533 11.16 13.96 11C14.0933 10.8133 14.2 10.64 14.28 10.48C14.3867 10.32 14.4667 10.1867 14.52 10.08C14.7867 9.65334 15.0533 9.24 15.32 8.84C15.5867 8.41334 15.8667 7.97333 16.16 7.52C16.48 7.04 16.8 6.52 17.12 5.96C17.4667 5.4 17.8667 4.76 18.32 4.04C18.5067 3.72 18.7467 3.33333 19.04 2.88C19.3333 2.42667 19.6667 1.98667 20.04 1.56C20.4133 1.13333 20.8 0.773334 21.2 0.480001C21.6267 0.16 22.0533 0 22.48 0C22.6933 0 22.88 0.013334 23.04 0.0400019C23.2 0.0400019 23.36 0.053335 23.52 0.0800014C23.84 0.106668 24.1467 0.253334 24.44 0.52C24.6533 0.733334 24.8133 0.960001 24.92 1.2C25.0267 1.54667 25.0933 1.84 25.12 2.08C25.1467 2.26667 25.16 2.44 25.16 2.6C25.1867 2.76 25.2 2.92 25.2 3.08C25.2 4.57333 25.2133 6.05333 25.24 7.52C25.2667 8.98667 25.28 10.4667 25.28 11.96C25.28 13.7733 25.28 15.64 25.28 17.56C25.3067 19.48 25.32 21.3467 25.32 23.16C25.32 23.5333 25.3333 23.9333 25.36 24.36C25.3867 24.7867 25.3867 25.2133 25.36 25.64Z" fill="#FFEA20"/>
<path d="M33.1513 11.0982C34.0313 10.6715 34.9513 10.3648 35.9113 10.1782C36.8713 9.99152 37.818 9.95152 38.7513 10.0582C39.7113 10.1648 40.6313 10.4182 41.5113 10.8182C42.418 11.2182 43.2446 11.7782 43.9913 12.4982C44.6046 13.1115 45.138 13.8582 45.5913 14.7382C46.0446 15.5915 46.378 16.4315 46.5913 17.2582C47.0446 18.7248 47.1113 20.2048 46.7913 21.6982C46.4713 23.1915 45.9246 24.5782 45.1513 25.8582C44.778 26.4448 44.3113 26.9782 43.7513 27.4582C43.218 27.9115 42.6446 28.2848 42.0313 28.5782C41.2313 28.9515 40.3646 29.2048 39.4313 29.3382C38.498 29.4982 37.5913 29.5382 36.7113 29.4582C35.1113 29.3782 33.698 28.9782 32.4713 28.2582C31.2713 27.5382 30.298 26.6182 29.5513 25.4982C28.8313 24.3782 28.3513 23.1115 28.1113 21.6982C27.898 20.2582 27.9913 18.7915 28.3913 17.2982C28.818 15.6982 29.4313 14.4048 30.2313 13.4182C31.058 12.4048 32.0313 11.6315 33.1513 11.0982ZM34.3513 16.4582C33.9513 16.8315 33.6446 17.2982 33.4313 17.8582C33.218 18.4182 33.0846 19.0048 33.0313 19.6182C32.978 20.2048 33.018 20.8048 33.1513 21.4182C33.3113 22.0048 33.5513 22.5382 33.8713 23.0182C34.138 23.4182 34.618 23.7515 35.3113 24.0182C36.0046 24.2848 36.7246 24.4448 37.4713 24.4982C38.3246 24.5515 39.0713 24.3248 39.7113 23.8182C40.3513 23.2848 40.8313 22.6315 41.1513 21.8582C41.498 21.0848 41.658 20.2448 41.6313 19.3382C41.6046 18.4315 41.3646 17.6048 40.9113 16.8582C40.5913 16.3248 40.138 15.9382 39.5513 15.6982C38.9913 15.4315 38.3913 15.2982 37.7513 15.2982C37.138 15.2715 36.5246 15.3648 35.9113 15.5782C35.298 15.7648 34.778 16.0582 34.3513 16.4582Z" fill="#FFEA20"/>
<path d="M125.151 11.0982C126.031 10.6715 126.951 10.3648 127.911 10.1782C128.871 9.99152 129.818 9.95152 130.751 10.0582C131.711 10.1648 132.631 10.4182 133.511 10.8182C134.418 11.2182 135.245 11.7782 135.991 12.4982C136.605 13.1115 137.138 13.8582 137.591 14.7382C138.045 15.5915 138.378 16.4315 138.591 17.2582C139.045 18.7248 139.111 20.2048 138.791 21.6982C138.471 23.1915 137.925 24.5782 137.151 25.8582C136.778 26.4448 136.311 26.9782 135.751 27.4582C135.218 27.9115 134.645 28.2848 134.031 28.5782C133.231 28.9515 132.365 29.2048 131.431 29.3382C130.498 29.4982 129.591 29.5382 128.711 29.4582C127.111 29.3782 125.698 28.9782 124.471 28.2582C123.271 27.5382 122.298 26.6182 121.551 25.4982C120.831 24.3782 120.351 23.1115 120.111 21.6982C119.898 20.2582 119.991 18.7915 120.391 17.2982C120.818 15.6982 121.431 14.4048 122.231 13.4182C123.058 12.4048 124.031 11.6315 125.151 11.0982ZM126.351 16.4582C125.951 16.8315 125.645 17.2982 125.431 17.8582C125.218 18.4182 125.085 19.0048 125.031 19.6182C124.978 20.2048 125.018 20.8048 125.151 21.4182C125.311 22.0048 125.551 22.5382 125.871 23.0182C126.138 23.4182 126.618 23.7515 127.311 24.0182C128.005 24.2848 128.725 24.4448 129.471 24.4982C130.325 24.5515 131.071 24.3248 131.711 23.8182C132.351 23.2848 132.831 22.6315 133.151 21.8582C133.498 21.0848 133.658 20.2448 133.631 19.3382C133.605 18.4315 133.365 17.6048 132.911 16.8582C132.591 16.3248 132.138 15.9382 131.551 15.6982C130.991 15.4315 130.391 15.2982 129.751 15.2982C129.138 15.2715 128.525 15.3648 127.911 15.5782C127.298 15.7648 126.778 16.0582 126.351 16.4582Z" fill="#FFEA20"/>
<path d="M66.77 11.5714C66.8767 11.8914 66.9033 12.2514 66.85 12.6514C66.7967 13.0514 66.7033 13.4648 66.57 13.8914C66.4367 14.2914 66.2767 14.6914 66.09 15.0914C65.93 15.4648 65.7833 15.7981 65.65 16.0914C64.9567 17.5048 64.3033 18.8914 63.69 20.2514C63.0767 21.6114 62.3567 23.0914 61.53 24.6914C61.37 25.0114 61.1833 25.3981 60.97 25.8514C60.7833 26.2781 60.57 26.7048 60.33 27.1314C60.09 27.5314 59.8233 27.9048 59.53 28.2514C59.2633 28.5981 58.97 28.8514 58.65 29.0114C58.3833 29.1714 58.1167 29.2381 57.85 29.2114C57.6367 29.2648 57.3967 29.1981 57.13 29.0114C56.81 28.8514 56.5033 28.5981 56.21 28.2514C55.9433 27.9048 55.69 27.5314 55.45 27.1314C55.21 26.7048 54.9833 26.2781 54.77 25.8514C54.5833 25.3981 54.41 25.0114 54.25 24.6914C53.93 24.0781 53.6233 23.5048 53.33 22.9714C53.0633 22.4381 52.77 21.8648 52.45 21.2514C52.1567 20.6114 51.8233 19.8914 51.45 19.0914C51.0767 18.2648 50.6367 17.2648 50.13 16.0914C49.9967 15.7714 49.85 15.4381 49.69 15.0914C49.53 14.7448 49.3833 14.3714 49.25 13.9714C49.1433 13.5714 49.0633 13.1714 49.01 12.7714C48.9833 12.3448 49.01 11.9181 49.09 11.4914C49.17 11.0914 49.37 10.7714 49.69 10.5314C50.01 10.2914 50.37 10.1314 50.77 10.0514C51.17 9.97143 51.57 9.98476 51.97 10.0914C52.37 10.1714 52.69 10.3448 52.93 10.6114C53.17 10.8514 53.3967 11.1714 53.61 11.5714C53.8233 11.9714 54.0233 12.3981 54.21 12.8514C54.4233 13.2781 54.61 13.7181 54.77 14.1714C54.9567 14.5981 55.13 14.9714 55.29 15.2914C55.6633 16.0648 56.0767 16.9048 56.53 17.8114C57.01 18.7181 57.4367 19.5581 57.81 20.3314C58.0767 19.7181 58.3167 19.2114 58.53 18.8114C58.7433 18.3848 58.9433 17.9714 59.13 17.5714C59.3433 17.1714 59.5567 16.7314 59.77 16.2514C60.01 15.7714 60.3033 15.1581 60.65 14.4114C60.97 13.7181 61.29 13.0381 61.61 12.3714C61.9567 11.7048 62.37 11.1181 62.85 10.6114C63.09 10.3448 63.3967 10.1714 63.77 10.0914C64.1433 9.98476 64.53 9.97143 64.93 10.0514C65.33 10.1314 65.69 10.3048 66.01 10.5714C66.3567 10.8114 66.61 11.1448 66.77 11.5714Z" fill="#FFEA20"/>
<path d="M76.04 13.844C76.04 14.5907 76.04 15.4307 76.04 16.364C76.0667 17.2973 76.08 18.2707 76.08 19.284C76.08 20.2707 76.08 21.2573 76.08 22.244C76.08 23.204 76.0667 24.0973 76.04 24.924C76.0133 25.324 75.9733 25.764 75.92 26.244C75.8667 26.6973 75.76 27.124 75.6 27.524C75.44 27.924 75.1867 28.2573 74.84 28.524C74.52 28.764 74.08 28.8707 73.52 28.844C72.6933 28.7907 72.0933 28.4307 71.72 27.764C71.3733 27.0973 71.1733 26.164 71.12 24.964C71.12 24.3507 71.1067 23.644 71.08 22.844C71.08 22.044 71.0667 21.2307 71.04 20.404C71.04 19.5773 71.04 18.7773 71.04 18.004C71.04 17.204 71.04 16.484 71.04 15.844C71.04 15.4707 71.0267 15.0173 71 14.484C71 13.9507 71.0133 13.404 71.04 12.844C71.0667 12.284 71.1333 11.7507 71.24 11.244C71.3467 10.7107 71.52 10.2707 71.76 9.924C71.9467 9.71067 72.2133 9.55067 72.56 9.444C72.9067 9.31067 73.2667 9.244 73.64 9.244C74.04 9.244 74.4133 9.31067 74.76 9.444C75.1333 9.57733 75.4 9.764 75.56 10.004C75.6667 10.164 75.7467 10.3907 75.8 10.684C75.8533 10.9773 75.8933 11.3107 75.92 11.684C75.9733 12.0307 76 12.404 76 12.804C76.0267 13.1773 76.04 13.524 76.04 13.844ZM74.52 5.764C73.6933 5.97733 73 5.89733 72.44 5.524C71.9067 5.124 71.5733 4.53733 71.44 3.764C71.3333 3.204 71.3733 2.71067 71.56 2.284C71.7467 1.85733 72.0267 1.53733 72.4 1.324C72.7733 1.084 73.2 0.977334 73.68 1.004C74.16 1.03067 74.64 1.21733 75.12 1.564C75.5733 1.884 75.8933 2.25733 76.08 2.684C76.2933 3.11067 76.36 3.524 76.28 3.924C76.2267 4.324 76.0533 4.69733 75.76 5.044C75.4667 5.364 75.0533 5.604 74.52 5.764Z" fill="#FFEA20"/>
<path d="M167.04 13.844C167.04 14.5907 167.04 15.4307 167.04 16.364C167.067 17.2973 167.08 18.2707 167.08 19.284C167.08 20.2707 167.08 21.2573 167.08 22.244C167.08 23.204 167.067 24.0973 167.04 24.924C167.013 25.324 166.973 25.764 166.92 26.244C166.867 26.6973 166.76 27.124 166.6 27.524C166.44 27.924 166.187 28.2573 165.84 28.524C165.52 28.764 165.08 28.8707 164.52 28.844C163.693 28.7907 163.093 28.4307 162.72 27.764C162.373 27.0973 162.173 26.164 162.12 24.964C162.12 24.3507 162.107 23.644 162.08 22.844C162.08 22.044 162.067 21.2307 162.04 20.404C162.04 19.5773 162.04 18.7773 162.04 18.004C162.04 17.204 162.04 16.484 162.04 15.844C162.04 15.4707 162.027 15.0173 162 14.484C162 13.9507 162.013 13.404 162.04 12.844C162.067 12.284 162.133 11.7507 162.24 11.244C162.347 10.7107 162.52 10.2707 162.76 9.924C162.947 9.71067 163.213 9.55067 163.56 9.444C163.907 9.31067 164.267 9.244 164.64 9.244C165.04 9.244 165.413 9.31067 165.76 9.444C166.133 9.57733 166.4 9.764 166.56 10.004C166.667 10.164 166.747 10.3907 166.8 10.684C166.853 10.9773 166.893 11.3107 166.92 11.684C166.973 12.0307 167 12.404 167 12.804C167.027 13.1773 167.04 13.524 167.04 13.844ZM165.52 5.764C164.693 5.97733 164 5.89733 163.44 5.524C162.907 5.124 162.573 4.53733 162.44 3.764C162.333 3.204 162.373 2.71067 162.56 2.284C162.747 1.85733 163.027 1.53733 163.4 1.324C163.773 1.084 164.2 0.977334 164.68 1.004C165.16 1.03067 165.64 1.21733 166.12 1.564C166.573 1.884 166.893 2.25733 167.08 2.684C167.293 3.11067 167.36 3.524 167.28 3.924C167.227 4.324 167.053 4.69733 166.76 5.044C166.467 5.364 166.053 5.604 165.52 5.764Z" fill="#FFEA20"/>
<path d="M92.9067 23.3217C93.2267 23.2417 93.5467 23.1883 93.8667 23.1617C94.2133 23.135 94.52 23.175 94.7867 23.2817C95.08 23.3883 95.32 23.575 95.5067 23.8417C95.6933 24.0817 95.7867 24.4283 95.7867 24.8817C95.7867 25.2017 95.7067 25.5083 95.5467 25.8017C95.3867 26.095 95.1867 26.3617 94.9467 26.6017C94.7067 26.8417 94.44 27.055 94.1467 27.2417C93.8533 27.4017 93.5733 27.535 93.3067 27.6417C92.5333 27.9883 91.64 28.255 90.6267 28.4417C89.64 28.6283 88.6133 28.695 87.5467 28.6417C86.1067 28.5883 84.72 28.3083 83.3867 27.8017C82.08 27.2683 81.0533 26.4017 80.3067 25.2017C79.6133 24.0283 79.2 22.7217 79.0667 21.2817C78.9333 19.8417 79 18.4817 79.2667 17.2017C79.56 15.655 80.0533 14.4017 80.7467 13.4417C81.4667 12.455 82.32 11.6683 83.3067 11.0817C84.5067 10.3883 85.8533 10.0283 87.3467 10.0017C88.84 9.975 90.2667 10.2683 91.6267 10.8817C92.5333 11.2817 93.3467 11.8283 94.0667 12.5217C94.7867 13.1883 95.3333 14.0017 95.7067 14.9617C95.8133 15.2017 95.8933 15.495 95.9467 15.8417C96.0267 16.1883 96.08 16.5617 96.1067 16.9617C96.1333 17.335 96.1333 17.7083 96.1067 18.0817C96.08 18.455 96.0133 18.7883 95.9067 19.0817C95.7467 19.5617 95.5467 19.935 95.3067 20.2017C95.0667 20.4683 94.76 20.6683 94.3867 20.8017C94.0133 20.935 93.56 21.0283 93.0267 21.0817C92.52 21.1083 91.9067 21.135 91.1867 21.1617C90.5467 21.1883 89.9467 21.2017 89.3867 21.2017C88.8267 21.2017 88.2533 21.2017 87.6667 21.2017C87.08 21.175 86.4667 21.1617 85.8267 21.1617C85.2133 21.135 84.52 21.1083 83.7467 21.0817C83.6667 21.615 83.7333 22.0817 83.9467 22.4817C84.1867 22.855 84.5067 23.175 84.9067 23.4417C85.3067 23.6817 85.76 23.8683 86.2667 24.0017C86.7733 24.135 87.2667 24.215 87.7467 24.2417C88.6533 24.295 89.52 24.2283 90.3467 24.0417C91.1733 23.8283 92.0267 23.5883 92.9067 23.3217ZM91.1867 15.5617C90.68 14.975 90.1467 14.5483 89.5867 14.2817C89.16 14.095 88.7067 14.015 88.2267 14.0417C87.7733 14.0417 87.3333 14.1083 86.9067 14.2417C86.1333 14.4283 85.48 14.8283 84.9467 15.4417C84.8933 15.495 84.8 15.6283 84.6667 15.8417C84.5333 16.0283 84.4 16.2283 84.2667 16.4417C84.16 16.655 84.08 16.855 84.0267 17.0417C83.9733 17.2283 84 17.3217 84.1067 17.3217H91.9467C91.92 16.9483 91.8533 16.6417 91.7467 16.4017C91.64 16.135 91.4533 15.855 91.1867 15.5617Z" fill="#FFEA20"/>
<path d="M121.08 2.26C121.373 2.60667 121.52 2.96667 121.52 3.34C121.52 3.5 121.507 3.67333 121.48 3.86C121.48 4.02 121.467 4.16667 121.44 4.3C121.36 4.59333 121.187 4.87333 120.92 5.14C120.707 5.3 120.413 5.42 120.04 5.5C119.853 5.55333 119.667 5.59333 119.48 5.62C119.293 5.64667 119.093 5.68667 118.88 5.74C118.693 5.76667 118.507 5.78 118.32 5.78C118.133 5.78 117.933 5.78 117.72 5.78H115.68C115.2 5.80667 114.72 5.82 114.24 5.82C113.787 5.82 113.333 5.82 112.88 5.82C112.907 6.64667 112.92 7.54 112.92 8.5C112.92 9.43333 112.907 10.5267 112.88 11.78C112.88 13.0333 112.867 14.4867 112.84 16.14C112.84 17.7933 112.84 19.7133 112.84 21.9V24.94C112.84 25.2067 112.853 25.4067 112.88 25.54C112.88 25.6467 112.88 25.7533 112.88 25.86C112.88 25.94 112.867 26.0467 112.84 26.18C112.787 26.42 112.747 26.7 112.72 27.02C112.72 27.1533 112.707 27.2867 112.68 27.42C112.653 27.5267 112.613 27.6467 112.56 27.78C112.453 27.8867 112.4 27.9667 112.4 28.02L112.28 28.26C112.147 28.5267 111.893 28.78 111.52 29.02C110.933 29.3133 110.28 29.38 109.56 29.22C109.107 29.1667 108.76 29.0467 108.52 28.86C108.28 28.62 108.107 28.38 108 28.14C107.84 27.8467 107.747 27.5667 107.72 27.3C107.64 27.06 107.6 26.8067 107.6 26.54V5.98C107.44 5.98 107.107 5.98 106.6 5.98C106.093 5.98 105.547 5.98 104.96 5.98C104.4 5.95333 103.867 5.92667 103.36 5.9C102.853 5.87333 102.507 5.84667 102.32 5.82C102.16 5.79333 101.907 5.75333 101.56 5.7C101.24 5.64667 100.973 5.59333 100.76 5.54C100.2 5.38 99.76 5.12667 99.44 4.78C99.1467 4.43333 99 4.04667 99 3.62C99 3.46 99 3.3 99 3.14C99 2.98 99.0267 2.83333 99.08 2.7C99.16 2.38 99.3733 2.11333 99.72 1.9C99.8267 1.82 99.9867 1.72667 100.2 1.62C100.44 1.48667 100.667 1.39333 100.88 1.34C101.2 1.23333 101.6 1.15333 102.08 1.1C102.293 1.07333 102.507 1.06 102.72 1.06C102.933 1.06 103.16 1.06 103.4 1.06C104.333 1.06 105.213 1.06 106.04 1.06C106.893 1.06 107.787 1.04667 108.72 1.02C110.267 0.993333 111.8 0.993333 113.32 1.02C114.867 1.02 116.4 1.04667 117.92 1.1C118.267 1.12667 118.6 1.16667 118.92 1.22C119.24 1.27333 119.56 1.36667 119.88 1.5C120.12 1.58 120.347 1.68667 120.56 1.82C120.773 1.92667 120.947 2.07333 121.08 2.26Z" fill="#FFEA20"/>
<path d="M153.2 11.484C153.973 11.804 154.68 12.2707 155.32 12.884C155.96 13.4707 156.507 14.1507 156.96 14.924C157.44 15.6973 157.8 16.5373 158.04 17.444C158.307 18.324 158.44 19.2173 158.44 20.124C158.467 21.484 158.147 22.764 157.48 23.964C156.84 25.164 155.787 26.084 154.32 26.724C153.2 27.1773 152.04 27.524 150.84 27.764C149.667 27.9773 148.44 28.124 147.16 28.204V35.524C147.16 35.684 147.133 35.8307 147.08 35.964C147.053 36.0973 147.04 36.2307 147.04 36.364C146.987 36.6307 146.92 36.8707 146.84 37.084C146.787 37.2973 146.707 37.524 146.6 37.764C146.493 37.924 146.387 38.0707 146.28 38.204C146.173 38.3373 146.053 38.4707 145.92 38.604C145.28 38.924 144.613 38.9907 143.92 38.804C143.493 38.7773 143.147 38.644 142.88 38.404C142.64 38.164 142.467 37.9107 142.36 37.644C142.253 37.3773 142.16 37.0707 142.08 36.724C142.053 36.5907 142.027 36.4573 142 36.324C142 36.2173 142 36.0973 142 35.964V13.684C142 13.524 142 13.364 142 13.204C142.027 13.0173 142.053 12.8307 142.08 12.644C142.107 12.324 142.187 12.004 142.32 11.684C142.56 11.0173 143.053 10.564 143.8 10.324C144.547 10.084 145.387 9.97733 146.32 10.004C146.96 10.0307 147.613 10.0973 148.28 10.204C148.973 10.3107 149.627 10.444 150.24 10.604C150.88 10.7373 151.453 10.884 151.96 11.044C152.467 11.204 152.88 11.3507 153.2 11.484ZM153.28 20.124C153.387 19.3773 153.293 18.7507 153 18.244C152.733 17.7107 152.347 17.284 151.84 16.964C151.333 16.6173 150.747 16.3507 150.08 16.164C149.44 15.9773 148.8 15.844 148.16 15.764C148.08 15.7373 147.947 15.724 147.76 15.724C147.6 15.724 147.413 15.724 147.2 15.724C147.2 16.5773 147.2 17.404 147.2 18.204C147.227 18.9773 147.227 19.8173 147.2 20.724V23.404C147.813 23.3773 148.453 23.3107 149.12 23.204C149.813 23.0973 150.453 22.924 151.04 22.684C151.627 22.444 152.12 22.124 152.52 21.724C152.947 21.324 153.2 20.7907 153.28 20.124Z" fill="#FFEA20"/>
<path d="M174.683 12.0182C175.483 11.6182 176.323 11.3382 177.203 11.1782C178.083 10.9915 178.95 10.9515 179.803 11.0582C180.683 11.1382 181.523 11.3648 182.323 11.7382C183.123 12.0848 183.87 12.5915 184.563 13.2582C185.257 13.9515 185.79 14.7115 186.163 15.5382C186.537 16.3648 186.803 17.2848 186.963 18.2982C187.07 18.9915 187.243 19.6315 187.483 20.2182C187.723 20.8048 187.977 21.3915 188.243 21.9782C188.537 22.5648 188.803 23.1515 189.043 23.7382C189.31 24.3248 189.523 24.9382 189.683 25.5782C189.817 26.1915 189.763 26.7915 189.523 27.3782C189.31 27.9382 188.857 28.2848 188.163 28.4182C187.763 28.4982 187.377 28.4715 187.003 28.3382C186.657 28.1782 186.337 27.9648 186.043 27.6982C185.75 27.4048 185.483 27.0982 185.243 26.7782C185.03 26.4315 184.83 26.1115 184.643 25.8182C184.03 26.6182 183.363 27.2448 182.643 27.6982C181.923 28.1248 181.057 28.4048 180.043 28.5382C179.19 28.6448 178.377 28.6715 177.603 28.6182C176.83 28.5648 176.003 28.4182 175.123 28.1782C173.977 27.8848 173.03 27.3782 172.283 26.6582C171.563 25.9115 171.003 25.0582 170.603 24.0982C170.23 23.1115 170.03 22.0582 170.003 20.9382C169.977 19.8182 170.11 18.7115 170.403 17.6182C170.777 16.1782 171.337 15.0048 172.083 14.0982C172.83 13.1915 173.697 12.4982 174.683 12.0182ZM175.683 16.6982C175.31 17.0715 175.017 17.5115 174.803 18.0182C174.59 18.5248 174.457 19.0582 174.403 19.6182C174.377 20.1782 174.43 20.7382 174.563 21.2982C174.697 21.8582 174.91 22.3515 175.203 22.7782C175.47 23.1515 175.923 23.4715 176.563 23.7382C177.203 23.9782 177.87 24.1248 178.563 24.1782C179.363 24.2315 180.057 24.0182 180.643 23.5382C181.257 23.0582 181.71 22.4582 182.003 21.7382C182.323 20.9915 182.47 20.2048 182.443 19.3782C182.417 18.5248 182.19 17.7515 181.763 17.0582C181.443 16.5515 181.017 16.1782 180.483 15.9382C179.977 15.6982 179.43 15.5782 178.843 15.5782C178.257 15.5515 177.67 15.6448 177.083 15.8582C176.523 16.0448 176.057 16.3248 175.683 16.6982Z" fill="#FFEA20"/>
</svg>
